<?xml version="1.0" encoding="UTF-8"?>
<svg id="Layer_1" xmlns="http://www.w3.org/2000/svg" width="8.3in" height="1in" xmlns:xlink="http://www.w3.org/1999/xlink" version="1.1" viewBox="0 0 598.3 72.7">
  <!-- Generator: Adobe Illustrator 29.3.0, SVG Export Plug-In . SVG Version: 2.1.0 Build 146)  -->
  <defs>
    <style>
      .st0 {
        fill: #d7972b;
      }

      .st1 {
        fill: rgba(40, 35, 45, 0.75);
      }
    </style>
  </defs>
  <path class="st1" d="M286.6,10.9l5.8,1.5c16.3,5.6,18.2,31.9,6.5,42.5-8.1,7.3-24.7,7.2-32.8-.1-9.8-9-9.5-30.7.9-39.1s7-3.8,11.1-4.8h8.4ZM281,23.9c-7.5,1.1-7.2,15.4-4.5,20.4s10.9,4.3,13-1.4,1.7-20.5-8.5-19Z"/>
  <path class="st1" d="M137.3,10.9l3.5.9c4.4,1.5,8.4,4.4,10.7,8.5,3.5,6.2,3.6,13.4,2.4,20.2h-27.4c1.4,7.8,10.5,7.3,16.6,5.9s5.3-1.8,5.7-1.6c1.3,2.8,2.4,5.7,2.9,8.7s.6,3.5-.1,3.9-4,1.2-5,1.5c-18,4.3-35.1-.7-35.9-21.6s3.5-20.7,13.8-24.8,3.6-1,5.4-1.6h7.4ZM140.4,30.1c.2-8.9-11.8-10.5-14-1.9s-.6,1.9,0,1.9h14Z"/>
  <path class="st1" d="M191,10.9c1.3.1,3.6.7,4.9,1s4.1,1.4,4.2,1.8c.5,4.3-.9,8.2-2.6,12-8.8-3.1-19.1-3.1-19.9,8.5s5.5,14.5,15.1,12.4,4.2-1.6,4.8-1.2c1.6,1,3.7,10,3.4,12.2-3.1,1.4-6.5,2.2-10,2.5-13.1,1.2-24.8-3-28.1-16.7-3.4-14.1,2.6-30.6,18.6-32.5s7.4-.2,9.6,0Z"/>
  <path class="st1" d="M218.2,10.9s.3.2.6.2c.9,0,6.2.3,6.4.9v46.6c0,.3-.1.5-.4.6-.4.1-2.8.5-3.3.5-1.4.1-11.4,0-11.6-.9V12c.1-.5,5.5-.8,6.4-.9s.5-.2.6-.3c.5,0,1,0,1.4,0Z"/>
  <g>
    <path class="st1" d="M393.6,11.9c.8,4.2,1.4,9.1-.4,13.1h-19.1v6.8s.3.4.4.4h15.2c1.1,4.2,1,8.7,0,12.9h-15.6v14.1c-5.1.6-10.5.9-15.6-.2V12.2s.3-.4.4-.4h34.7Z"/>
    <path class="st1" d="M351.6,11.9c.8,4.3,1,8.7,0,12.9h-19.4v7.4h15.5c.4,0,.8,3.8.9,4.4,0,1.3,0,3,0,4.3s-.4,4.2-.8,4.2h-15.5v13.5c0,.5-3.1,1-3.7,1.1-2.3.2-6.1.2-8.4,0s-2.6-.4-3.5-.8V11.9h35Z"/>
  </g>
  <path class="st1" d="M254.4,11.9v.7c-.1,0-11.2,21.4-11.2,21.4,3.5,7.2,7.4,14.2,10.9,21.4s1.6,3.3,1.5,3.5c0,.4-3.5.8-4.2.9-3.9.3-8.3,0-12.2-.5-.4-.1-2.1-3.6-2.5-4.3-3.4-6.5-6.3-13.2-9.8-19.7v-1.2c-.1,0,9.9-20.9,9.9-20.9.6-1.6,2.1-1.6,3.6-1.7s2.7-.2,3.8-.3c3.4-.1,6.9.2,10.2.7Z"/>
  <g>
    <path class="st0" d="M497.5,10.9c4,.3,9.4,2,12.6,4.6,6.4,5.2,6.4,16.2.9,22.1s-1.7,1.3-1.7,1.6l10.3,19.8c-5.7,1-11.8,1.2-17.5,0l-9.9-21.4c0-.5,2.3-1.5,2.9-1.9,3.2-2.3,5.5-7.5,2.6-10.9s-2.2-1.6-3-1.6h-4.1s-.4.3-.4.4v35.7c-5.1.9-10,.9-15.1,0V12.3c.1-.4,6.4-.8,7.3-.9s1.9-.4,2.5-.5c3.5-.2,9-.3,12.5,0Z"/>
    <path class="st0" d="M447.1,10.9c12.1,1,19.1,8.1,18.3,20.5-.9,13.3-12.8,18-24.7,16.6v10.9c-.8.5-2.1.7-3,.8-4,.6-8.1.2-12.1-.4V12.3c.1-.4,7.7-1.1,8.7-1.1s.3-.2.4-.2c3.4-.2,9.1-.3,12.5,0ZM440.6,23v13.1s.3.4.4.4h3.6c.3,0,2.2-.7,2.6-.9,4.1-2.1,4-9.3,0-11.8s-6.3-2-6.6-.8Z"/>
    <g>
      <path class="st0" d="M551,10.9l5.8,1.5c4.4,1.8,8.1,4.7,10.5,8.8-4,4-8.8,10.1-13.2,13.5s-1.8,1.2-3,.4c-3.7-2.4-7.4-7.7-10.9-10.6s-4.9-1.7-7.4,1-3.4,4.1-.7,7.2c4.3,5.1,11.9,12.3,16.9,17s2.9,2.7,4,2.4c5.9-5.7,11.9-11.5,17.8-17.4.5,10.7-3.8,20.9-14.5,24.4-8.5,2.8-20.5,1.5-26.8-5.4-8.3-9.2-8-28.5,1.2-37.1,3.4-3.2,7.6-4.5,12-5.6h8.4Z"/>
      <path class="st1" d="M567.4,21.2c2.2-2.2,5.8-5.9,8.2-7.8s4.4-.6,6.5,1.5,3.9,4,2.4,5.7c-4.6,4.6-9.1,9.4-13.7,14s-11.8,11.6-17.8,17.4c-1.1.3-3.1-1.6-4-2.4-5-4.7-12.6-11.9-16.9-17s-2-4.4.7-7.2,4.4-3.4,7.4-1,7.2,8.2,10.9,10.6,2,.4,3-.4c4.4-3.4,9.2-9.6,13.2-13.5Z"/>
    </g>
  </g>
  <g>
    <path class="st1" d="M64.1,10.9l7.2,1v15.9s.3.4.4.4h13s.4-.3.4-.4v-15.9l7-1c.4,0,.8,0,1.2,0s.3.2.6.2c2.2.2,4.5,0,6.6.9v47.2c-2.9.2-5.8.8-8.8.7s-4.4-.7-6.6-.7v-17.1s-.3-.4-.4-.4h-13s-.4.3-.4.4v17.1c-5.1.8-10.1,1-15.2,0l-.4-.4V12.5c0-.5.5-.6.9-.7,1.8-.5,4.4-.7,6.3-.8h1.2Z"/>
    <path class="st1" d="M37.2,10.9c1.4.1,3.6.7,5,1.1s4,1.3,4.1,1.6c.2,2.8-.2,5.6-1.1,8.2s-1.1,2.8-1.3,3.2-.4.4-.8.4c-1,0-3.2-1-4.4-1.2-8.3-1.4-14.5,1.1-15,10.1s6,14.5,15.9,12,3.3-1.4,4-1,1.4,2.5,1.6,3c1.1,2.9,1.7,6.1,1.6,9.2-2.9,1.5-6.5,2.2-9.7,2.5-11.6,1.1-22.7-2-27.2-13.6-2.7-6.8-1.8-19.9,2.1-26.2s9.4-8.2,15.3-9.5c3.2.2,6.7-.3,9.8,0Z"/>
  </g>
</svg>
